<mxfile host="app.diagrams.net" modified="2024-02-05T21:28:40.259Z" agent="Mozilla/5.0 (Macintosh; Intel Mac OS X 10_15_7) AppleWebKit/605.1.15 (KHTML, like Gecko) Version/17.1 Safari/605.1.15" etag="Jv3tR3lU2an9K0Sa3cUP" version="23.1.1" type="device">
  <diagram name="Page-1" id="E2VAe9X7t8s-8TRK_tO-">
    <mxGraphModel dx="1466" dy="989" grid="1" gridSize="10" guides="1" tooltips="1" connect="1" arrows="1" fold="1" page="1" pageScale="1" pageWidth="827" pageHeight="1169" background="#D9F3F8" math="0" shadow="0">
      <root>
        <mxCell id="0" />
        <mxCell id="1" parent="0" />
        <mxCell id="Cf3IITZ0Q0RGBE67cMOB-1" value="" style="shape=umlLifeline;perimeter=lifelinePerimeter;whiteSpace=wrap;html=1;container=1;dropTarget=0;collapsible=0;recursiveResize=0;outlineConnect=0;portConstraint=eastwest;newEdgeStyle={&quot;curved&quot;:0,&quot;rounded&quot;:0};participant=umlActor;fillColor=none;size=43;" vertex="1" parent="1">
          <mxGeometry x="150" y="107" width="20" height="453" as="geometry" />
        </mxCell>
        <mxCell id="Cf3IITZ0Q0RGBE67cMOB-2" value="" style="html=1;points=[[0,0,0,0,5],[0,1,0,0,-5],[1,0,0,0,5],[1,1,0,0,-5]];perimeter=orthogonalPerimeter;outlineConnect=0;targetShapes=umlLifeline;portConstraint=eastwest;newEdgeStyle={&quot;curved&quot;:0,&quot;rounded&quot;:0};fillColor=#080606;strokeColor=#000000;" vertex="1" parent="Cf3IITZ0Q0RGBE67cMOB-1">
          <mxGeometry x="5" y="73" width="10" height="357" as="geometry" />
        </mxCell>
        <mxCell id="Cf3IITZ0Q0RGBE67cMOB-3" value="User&lt;br&gt;&lt;span style=&quot;font-weight: normal;&quot;&gt;(Actor)&lt;/span&gt;" style="text;align=center;fontStyle=1;verticalAlign=middle;spacingLeft=3;spacingRight=3;strokeColor=none;rotatable=0;points=[[0,0.5],[1,0.5]];portConstraint=eastwest;html=1;fontFamily=Poppins;fontSource=https%3A%2F%2Ffonts.googleapis.com%2Fcss%3Ffamily%3DPoppins;" vertex="1" parent="1">
          <mxGeometry x="120" y="70" width="80" height="26" as="geometry" />
        </mxCell>
        <mxCell id="Cf3IITZ0Q0RGBE67cMOB-4" value="" style="html=1;verticalAlign=bottom;endArrow=block;curved=0;rounded=0;" edge="1" parent="1">
          <mxGeometry x="-0.0008" relative="1" as="geometry">
            <mxPoint x="165" y="219.5" as="sourcePoint" />
            <mxPoint x="405" y="219.5" as="targetPoint" />
            <mxPoint as="offset" />
          </mxGeometry>
        </mxCell>
        <mxCell id="Cf3IITZ0Q0RGBE67cMOB-5" value="book_sport_slot&lt;br&gt;(time, date, game_type, partners)" style="edgeLabel;html=1;align=center;verticalAlign=middle;resizable=0;points=[];fontFamily=Poppins;fontSource=https%3A%2F%2Ffonts.googleapis.com%2Fcss%3Ffamily%3DPoppins;labelBackgroundColor=#D9F3F8;" vertex="1" connectable="0" parent="Cf3IITZ0Q0RGBE67cMOB-4">
          <mxGeometry x="-0.0366" y="-2" relative="1" as="geometry">
            <mxPoint x="-1" y="-19" as="offset" />
          </mxGeometry>
        </mxCell>
        <mxCell id="Cf3IITZ0Q0RGBE67cMOB-8" value="&lt;font data-font-src=&quot;https://fonts.googleapis.com/css?family=Poppins&quot; face=&quot;Poppins&quot;&gt;Authentication &lt;br&gt;DB&lt;/font&gt;" style="shape=umlLifeline;perimeter=lifelinePerimeter;whiteSpace=wrap;html=1;container=1;dropTarget=0;collapsible=0;recursiveResize=0;outlineConnect=0;portConstraint=eastwest;newEdgeStyle={&quot;curved&quot;:0,&quot;rounded&quot;:0};" vertex="1" parent="1">
          <mxGeometry x="360" y="100" width="100" height="460" as="geometry" />
        </mxCell>
        <mxCell id="Cf3IITZ0Q0RGBE67cMOB-9" value="" style="html=1;points=[[0,0,0,0,5],[0,1,0,0,-5],[1,0,0,0,5],[1,1,0,0,-5]];perimeter=orthogonalPerimeter;outlineConnect=0;targetShapes=umlLifeline;portConstraint=eastwest;newEdgeStyle={&quot;curved&quot;:0,&quot;rounded&quot;:0};fillColor=#080606;strokeColor=#000000;" vertex="1" parent="Cf3IITZ0Q0RGBE67cMOB-8">
          <mxGeometry x="45" y="90" width="10" height="320" as="geometry" />
        </mxCell>
        <mxCell id="Cf3IITZ0Q0RGBE67cMOB-16" value="" style="html=1;verticalAlign=bottom;endArrow=block;curved=0;rounded=0;" edge="1" parent="1">
          <mxGeometry x="-0.0008" relative="1" as="geometry">
            <mxPoint x="668.5" y="229.5" as="sourcePoint" />
            <mxPoint x="414" y="229.5" as="targetPoint" />
            <mxPoint as="offset" />
          </mxGeometry>
        </mxCell>
        <mxCell id="Cf3IITZ0Q0RGBE67cMOB-17" value="fetch_booking_data&lt;br&gt;(time, date)" style="edgeLabel;html=1;align=center;verticalAlign=middle;resizable=0;points=[];fontFamily=Poppins;fontSource=https%3A%2F%2Ffonts.googleapis.com%2Fcss%3Ffamily%3DPoppins;labelBackgroundColor=#D9F3F8;" vertex="1" connectable="0" parent="Cf3IITZ0Q0RGBE67cMOB-16">
          <mxGeometry x="-0.0366" y="-2" relative="1" as="geometry">
            <mxPoint x="-1" y="-19" as="offset" />
          </mxGeometry>
        </mxCell>
        <mxCell id="Cf3IITZ0Q0RGBE67cMOB-18" value="&lt;font face=&quot;Poppins&quot;&gt;Booking &lt;br&gt;Selection&lt;br&gt;&lt;/font&gt;Class" style="shape=umlLifeline;perimeter=lifelinePerimeter;whiteSpace=wrap;html=1;container=1;dropTarget=0;collapsible=0;recursiveResize=0;outlineConnect=0;portConstraint=eastwest;newEdgeStyle={&quot;curved&quot;:0,&quot;rounded&quot;:0};size=50;" vertex="1" parent="1">
          <mxGeometry x="620" y="100" width="100" height="460" as="geometry" />
        </mxCell>
        <mxCell id="Cf3IITZ0Q0RGBE67cMOB-19" value="" style="html=1;points=[[0,0,0,0,5],[0,1,0,0,-5],[1,0,0,0,5],[1,1,0,0,-5]];perimeter=orthogonalPerimeter;outlineConnect=0;targetShapes=umlLifeline;portConstraint=eastwest;newEdgeStyle={&quot;curved&quot;:0,&quot;rounded&quot;:0};fillColor=#080606;strokeColor=#000000;" vertex="1" parent="Cf3IITZ0Q0RGBE67cMOB-18">
          <mxGeometry x="45" y="102.5" width="10" height="210" as="geometry" />
        </mxCell>
        <mxCell id="Cf3IITZ0Q0RGBE67cMOB-24" value="" style="html=1;points=[[0,0,0,0,5],[0,1,0,0,-5],[1,0,0,0,5],[1,1,0,0,-5]];perimeter=orthogonalPerimeter;outlineConnect=0;targetShapes=umlLifeline;portConstraint=eastwest;newEdgeStyle={&quot;curved&quot;:0,&quot;rounded&quot;:0};fillColor=#333333;" vertex="1" parent="Cf3IITZ0Q0RGBE67cMOB-18">
          <mxGeometry x="51" y="254" width="10" height="40" as="geometry" />
        </mxCell>
        <mxCell id="Cf3IITZ0Q0RGBE67cMOB-25" value="&lt;font style=&quot;font-size: 12px; background-color: rgb(217, 243, 248);&quot; face=&quot;Poppins&quot;&gt;selection_algorithm&lt;/font&gt;" style="html=1;align=left;spacingLeft=2;endArrow=block;rounded=0;edgeStyle=orthogonalEdgeStyle;curved=0;rounded=0;" edge="1" parent="Cf3IITZ0Q0RGBE67cMOB-18">
          <mxGeometry relative="1" as="geometry">
            <mxPoint x="51" y="234" as="sourcePoint" />
            <Array as="points">
              <mxPoint x="51" y="230" />
              <mxPoint x="81" y="230" />
              <mxPoint x="81" y="264" />
            </Array>
            <mxPoint x="56" y="264" as="targetPoint" />
          </mxGeometry>
        </mxCell>
        <mxCell id="Cf3IITZ0Q0RGBE67cMOB-20" value="" style="html=1;verticalAlign=bottom;endArrow=open;dashed=1;endSize=8;curved=0;rounded=0;" edge="1" parent="1" target="Cf3IITZ0Q0RGBE67cMOB-19">
          <mxGeometry relative="1" as="geometry">
            <mxPoint x="414.0000000000001" y="278" as="sourcePoint" />
            <mxPoint x="669" y="278" as="targetPoint" />
          </mxGeometry>
        </mxCell>
        <mxCell id="Cf3IITZ0Q0RGBE67cMOB-21" value="all booking data requested for at &lt;br&gt;the specified date and time" style="edgeLabel;html=1;align=center;verticalAlign=middle;resizable=0;points=[];fontFamily=Poppins;fontSource=https%3A%2F%2Ffonts.googleapis.com%2Fcss%3Ffamily%3DPoppins;labelBackgroundColor=#D9F3F8;" vertex="1" connectable="0" parent="Cf3IITZ0Q0RGBE67cMOB-20">
          <mxGeometry x="0.0342" y="-1" relative="1" as="geometry">
            <mxPoint x="-3" y="-19" as="offset" />
          </mxGeometry>
        </mxCell>
        <mxCell id="Cf3IITZ0Q0RGBE67cMOB-22" value="" style="html=1;verticalAlign=bottom;endArrow=block;curved=0;rounded=0;" edge="1" parent="1">
          <mxGeometry x="-0.0008" relative="1" as="geometry">
            <mxPoint x="665" y="329.5" as="sourcePoint" />
            <mxPoint x="415" y="329.5" as="targetPoint" />
            <mxPoint as="offset" />
          </mxGeometry>
        </mxCell>
        <mxCell id="Cf3IITZ0Q0RGBE67cMOB-23" value="update_status" style="edgeLabel;html=1;align=center;verticalAlign=middle;resizable=0;points=[];fontFamily=Poppins;fontSource=https%3A%2F%2Ffonts.googleapis.com%2Fcss%3Ffamily%3DPoppins;labelBackgroundColor=#D9F3F8;" vertex="1" connectable="0" parent="Cf3IITZ0Q0RGBE67cMOB-22">
          <mxGeometry x="-0.0366" y="-2" relative="1" as="geometry">
            <mxPoint x="-1" y="-8" as="offset" />
          </mxGeometry>
        </mxCell>
        <mxCell id="Cf3IITZ0Q0RGBE67cMOB-34" value="&lt;font data-font-src=&quot;https://fonts.googleapis.com/css?family=Poppins&quot; face=&quot;Poppins&quot;&gt;alt&lt;/font&gt;" style="shape=umlFrame;whiteSpace=wrap;html=1;pointerEvents=0;" vertex="1" parent="1">
          <mxGeometry y="350" width="470.5" height="141" as="geometry" />
        </mxCell>
        <mxCell id="Cf3IITZ0Q0RGBE67cMOB-35" value="" style="endArrow=none;dashed=1;html=1;rounded=0;entryX=1;entryY=0.406;entryDx=0;entryDy=0;entryPerimeter=0;exitX=-0.001;exitY=0.519;exitDx=0;exitDy=0;exitPerimeter=0;dashPattern=12 12;" edge="1" parent="1" source="Cf3IITZ0Q0RGBE67cMOB-34">
          <mxGeometry width="50" height="50" relative="1" as="geometry">
            <mxPoint x="10.5" y="422.9100000000001" as="sourcePoint" />
            <mxPoint x="470.5" y="421.0200000000001" as="targetPoint" />
          </mxGeometry>
        </mxCell>
        <mxCell id="Cf3IITZ0Q0RGBE67cMOB-36" value="" style="html=1;verticalAlign=bottom;endArrow=open;dashed=1;endSize=8;curved=0;rounded=0;" edge="1" parent="1">
          <mxGeometry relative="1" as="geometry">
            <mxPoint x="410.0000000000001" y="400" as="sourcePoint" />
            <mxPoint x="165.5" y="400" as="targetPoint" />
          </mxGeometry>
        </mxCell>
        <mxCell id="Cf3IITZ0Q0RGBE67cMOB-37" value="notification&lt;br&gt;(booking accepted)" style="edgeLabel;html=1;align=center;verticalAlign=middle;resizable=0;points=[];fontFamily=Poppins;fontSource=https%3A%2F%2Ffonts.googleapis.com%2Fcss%3Ffamily%3DPoppins;labelBackgroundColor=#D9F3F8;" vertex="1" connectable="0" parent="Cf3IITZ0Q0RGBE67cMOB-36">
          <mxGeometry x="0.0342" y="-1" relative="1" as="geometry">
            <mxPoint x="-3" y="-16" as="offset" />
          </mxGeometry>
        </mxCell>
        <mxCell id="Cf3IITZ0Q0RGBE67cMOB-38" value="" style="html=1;verticalAlign=bottom;endArrow=open;dashed=1;endSize=8;curved=0;rounded=0;" edge="1" parent="1">
          <mxGeometry relative="1" as="geometry">
            <mxPoint x="405.5" y="453.66" as="sourcePoint" />
            <mxPoint x="165.5" y="453.66" as="targetPoint" />
          </mxGeometry>
        </mxCell>
        <mxCell id="Cf3IITZ0Q0RGBE67cMOB-39" value="notification&lt;br&gt;(booking rejected)" style="edgeLabel;html=1;align=center;verticalAlign=middle;resizable=0;points=[];fontFamily=Poppins;fontSource=https%3A%2F%2Ffonts.googleapis.com%2Fcss%3Ffamily%3DPoppins;labelBackgroundColor=#D9F3F8;" vertex="1" connectable="0" parent="Cf3IITZ0Q0RGBE67cMOB-38">
          <mxGeometry x="0.0342" y="-1" relative="1" as="geometry">
            <mxPoint y="-8" as="offset" />
          </mxGeometry>
        </mxCell>
        <mxCell id="Cf3IITZ0Q0RGBE67cMOB-40" value="[Booking Accepted]" style="text;align=center;fontStyle=1;verticalAlign=middle;spacingLeft=3;spacingRight=3;strokeColor=none;rotatable=0;points=[[0,0.5],[1,0.5]];portConstraint=eastwest;html=1;fontFamily=Poppins;fontSource=https%3A%2F%2Ffonts.googleapis.com%2Fcss%3Ffamily%3DPoppins;" vertex="1" parent="1">
          <mxGeometry x="40" y="387" width="80" height="26" as="geometry" />
        </mxCell>
        <mxCell id="Cf3IITZ0Q0RGBE67cMOB-41" value="[Booking Rejected]" style="text;align=center;fontStyle=1;verticalAlign=middle;spacingLeft=3;spacingRight=3;strokeColor=none;rotatable=0;points=[[0,0.5],[1,0.5]];portConstraint=eastwest;html=1;fontFamily=Poppins;fontSource=https%3A%2F%2Ffonts.googleapis.com%2Fcss%3Ffamily%3DPoppins;" vertex="1" parent="1">
          <mxGeometry x="40" y="441" width="80" height="26" as="geometry" />
        </mxCell>
      </root>
    </mxGraphModel>
  </diagram>
</mxfile>
